<mxfile host="app.diagrams.net" modified="2020-05-12T05:35:33.399Z" agent="5.0 (Windows NT 10.0; Win64; x64) AppleWebKit/537.36 (KHTML, like Gecko) Chrome/81.0.4044.138 Safari/537.36" etag="StdK52kSIJBxsMyijh3p" version="13.0.9" type="github">
  <diagram id="PhHvFV6rx-kZFWLURuZM" name="第 1 页">
    <mxGraphModel dx="1673" dy="896" grid="1" gridSize="10" guides="1" tooltips="1" connect="1" arrows="1" fold="1" page="1" pageScale="1" pageWidth="1920" pageHeight="1200" math="0" shadow="0">
      <root>
        <mxCell id="0" />
        <mxCell id="1" parent="0" />
        <mxCell id="L4ZRt05aIZuPdk-ZOT8E-24" style="edgeStyle=orthogonalEdgeStyle;rounded=0;orthogonalLoop=1;jettySize=auto;html=1;exitX=0;exitY=0.5;exitDx=0;exitDy=0;entryX=1;entryY=0.75;entryDx=0;entryDy=0;" edge="1" parent="1" source="L4ZRt05aIZuPdk-ZOT8E-1" target="L4ZRt05aIZuPdk-ZOT8E-2">
          <mxGeometry relative="1" as="geometry" />
        </mxCell>
        <mxCell id="L4ZRt05aIZuPdk-ZOT8E-25" value="相应服务结果" style="edgeLabel;html=1;align=center;verticalAlign=middle;resizable=0;points=[];" vertex="1" connectable="0" parent="L4ZRt05aIZuPdk-ZOT8E-24">
          <mxGeometry x="0.3455" y="1" relative="1" as="geometry">
            <mxPoint as="offset" />
          </mxGeometry>
        </mxCell>
        <mxCell id="L4ZRt05aIZuPdk-ZOT8E-26" style="edgeStyle=orthogonalEdgeStyle;rounded=0;orthogonalLoop=1;jettySize=auto;html=1;entryX=1;entryY=0.5;entryDx=0;entryDy=0;" edge="1" parent="1" source="L4ZRt05aIZuPdk-ZOT8E-1" target="L4ZRt05aIZuPdk-ZOT8E-3">
          <mxGeometry relative="1" as="geometry">
            <Array as="points">
              <mxPoint x="1813" y="280" />
            </Array>
          </mxGeometry>
        </mxCell>
        <mxCell id="L4ZRt05aIZuPdk-ZOT8E-27" value="服务注册，注册自己的服务地址" style="edgeLabel;html=1;align=center;verticalAlign=middle;resizable=0;points=[];" vertex="1" connectable="0" parent="L4ZRt05aIZuPdk-ZOT8E-26">
          <mxGeometry x="0.1529" y="56" relative="1" as="geometry">
            <mxPoint x="46" y="96.47" as="offset" />
          </mxGeometry>
        </mxCell>
        <mxCell id="L4ZRt05aIZuPdk-ZOT8E-1" value="服务生产者A" style="rounded=0;whiteSpace=wrap;html=1;" vertex="1" parent="1">
          <mxGeometry x="1743" y="480" width="120" height="60" as="geometry" />
        </mxCell>
        <mxCell id="L4ZRt05aIZuPdk-ZOT8E-2" value="服务消费者" style="rounded=0;whiteSpace=wrap;html=1;" vertex="1" parent="1">
          <mxGeometry x="853" y="450" width="160" height="80" as="geometry" />
        </mxCell>
        <mxCell id="L4ZRt05aIZuPdk-ZOT8E-3" value="服务注册中心（eureka）" style="rounded=0;whiteSpace=wrap;html=1;" vertex="1" parent="1">
          <mxGeometry x="1053" y="250" width="620" height="60" as="geometry" />
        </mxCell>
        <mxCell id="L4ZRt05aIZuPdk-ZOT8E-7" style="edgeStyle=orthogonalEdgeStyle;rounded=0;orthogonalLoop=1;jettySize=auto;html=1;exitX=0.5;exitY=1;exitDx=0;exitDy=0;" edge="1" parent="1" source="L4ZRt05aIZuPdk-ZOT8E-4" target="L4ZRt05aIZuPdk-ZOT8E-6">
          <mxGeometry relative="1" as="geometry">
            <Array as="points">
              <mxPoint x="923" y="560" />
            </Array>
          </mxGeometry>
        </mxCell>
        <mxCell id="L4ZRt05aIZuPdk-ZOT8E-4" value="Feign" style="rounded=0;whiteSpace=wrap;html=1;" vertex="1" parent="1">
          <mxGeometry x="878" y="510" width="105" height="50" as="geometry" />
        </mxCell>
        <mxCell id="L4ZRt05aIZuPdk-ZOT8E-20" style="edgeStyle=orthogonalEdgeStyle;rounded=0;orthogonalLoop=1;jettySize=auto;html=1;entryX=0;entryY=0.25;entryDx=0;entryDy=0;" edge="1" parent="1" source="L4ZRt05aIZuPdk-ZOT8E-6" target="L4ZRt05aIZuPdk-ZOT8E-17">
          <mxGeometry relative="1" as="geometry">
            <mxPoint x="803" y="530" as="targetPoint" />
            <Array as="points">
              <mxPoint x="673" y="700" />
              <mxPoint x="673" y="425" />
            </Array>
          </mxGeometry>
        </mxCell>
        <mxCell id="L4ZRt05aIZuPdk-ZOT8E-21" value="感知服务注册表" style="edgeLabel;html=1;align=center;verticalAlign=middle;resizable=0;points=[];" vertex="1" connectable="0" parent="L4ZRt05aIZuPdk-ZOT8E-20">
          <mxGeometry x="0.023" y="3" relative="1" as="geometry">
            <mxPoint as="offset" />
          </mxGeometry>
        </mxCell>
        <mxCell id="L4ZRt05aIZuPdk-ZOT8E-22" style="edgeStyle=orthogonalEdgeStyle;rounded=0;orthogonalLoop=1;jettySize=auto;html=1;" edge="1" parent="1" source="L4ZRt05aIZuPdk-ZOT8E-6" target="L4ZRt05aIZuPdk-ZOT8E-1">
          <mxGeometry relative="1" as="geometry">
            <Array as="points">
              <mxPoint x="923" y="800" />
              <mxPoint x="1793" y="800" />
            </Array>
          </mxGeometry>
        </mxCell>
        <mxCell id="L4ZRt05aIZuPdk-ZOT8E-23" value="得到服务地址，调用消费者服务" style="edgeLabel;html=1;align=center;verticalAlign=middle;resizable=0;points=[];" vertex="1" connectable="0" parent="L4ZRt05aIZuPdk-ZOT8E-22">
          <mxGeometry x="-0.5065" y="-2" relative="1" as="geometry">
            <mxPoint as="offset" />
          </mxGeometry>
        </mxCell>
        <mxCell id="L4ZRt05aIZuPdk-ZOT8E-6" value="Ribbon&lt;br&gt;通过负载均衡选择合适的服务地址" style="rounded=0;whiteSpace=wrap;html=1;" vertex="1" parent="1">
          <mxGeometry x="863" y="670" width="120" height="60" as="geometry" />
        </mxCell>
        <mxCell id="L4ZRt05aIZuPdk-ZOT8E-18" style="edgeStyle=orthogonalEdgeStyle;rounded=0;orthogonalLoop=1;jettySize=auto;html=1;entryX=0;entryY=0.5;entryDx=0;entryDy=0;" edge="1" parent="1" source="L4ZRt05aIZuPdk-ZOT8E-17" target="L4ZRt05aIZuPdk-ZOT8E-3">
          <mxGeometry relative="1" as="geometry">
            <Array as="points">
              <mxPoint x="933" y="280" />
            </Array>
          </mxGeometry>
        </mxCell>
        <mxCell id="L4ZRt05aIZuPdk-ZOT8E-19" value="服务发现&lt;br&gt;定时调度去获取" style="edgeLabel;html=1;align=center;verticalAlign=middle;resizable=0;points=[];" vertex="1" connectable="0" parent="L4ZRt05aIZuPdk-ZOT8E-18">
          <mxGeometry x="-0.4376" y="-2" relative="1" as="geometry">
            <mxPoint as="offset" />
          </mxGeometry>
        </mxCell>
        <mxCell id="L4ZRt05aIZuPdk-ZOT8E-17" value="服务注册表" style="rounded=0;whiteSpace=wrap;html=1;" vertex="1" parent="1">
          <mxGeometry x="873" y="410" width="120" height="60" as="geometry" />
        </mxCell>
        <mxCell id="L4ZRt05aIZuPdk-ZOT8E-29" style="edgeStyle=orthogonalEdgeStyle;rounded=0;orthogonalLoop=1;jettySize=auto;html=1;entryX=0.806;entryY=1;entryDx=0;entryDy=0;entryPerimeter=0;" edge="1" parent="1" source="L4ZRt05aIZuPdk-ZOT8E-28" target="L4ZRt05aIZuPdk-ZOT8E-3">
          <mxGeometry relative="1" as="geometry" />
        </mxCell>
        <mxCell id="L4ZRt05aIZuPdk-ZOT8E-30" value="服务注册，注册自己的服务地址" style="edgeLabel;html=1;align=center;verticalAlign=middle;resizable=0;points=[];" vertex="1" connectable="0" parent="L4ZRt05aIZuPdk-ZOT8E-29">
          <mxGeometry x="0.2548" relative="1" as="geometry">
            <mxPoint as="offset" />
          </mxGeometry>
        </mxCell>
        <mxCell id="L4ZRt05aIZuPdk-ZOT8E-28" value="服务生产者B" style="rounded=0;whiteSpace=wrap;html=1;" vertex="1" parent="1">
          <mxGeometry x="1493" y="420" width="120" height="60" as="geometry" />
        </mxCell>
        <mxCell id="L4ZRt05aIZuPdk-ZOT8E-34" style="edgeStyle=orthogonalEdgeStyle;rounded=0;orthogonalLoop=1;jettySize=auto;html=1;entryX=0;entryY=0.5;entryDx=0;entryDy=0;" edge="1" parent="1" source="L4ZRt05aIZuPdk-ZOT8E-32" target="L4ZRt05aIZuPdk-ZOT8E-33">
          <mxGeometry relative="1" as="geometry" />
        </mxCell>
        <mxCell id="L4ZRt05aIZuPdk-ZOT8E-32" value="Actor" style="shape=umlActor;verticalLabelPosition=bottom;labelBackgroundColor=#ffffff;verticalAlign=top;html=1;outlineConnect=0;" vertex="1" parent="1">
          <mxGeometry x="190" y="460" width="30" height="60" as="geometry" />
        </mxCell>
        <mxCell id="L4ZRt05aIZuPdk-ZOT8E-33" value="zuul" style="rounded=1;whiteSpace=wrap;html=1;" vertex="1" parent="1">
          <mxGeometry x="380" y="470" width="120" height="60" as="geometry" />
        </mxCell>
      </root>
    </mxGraphModel>
  </diagram>
</mxfile>
